<?xml version="1.0" encoding="UTF-8"?>
<svg width="192px" height="40px" viewBox="0 0 192 40" version="1.1" xmlns="http://www.w3.org/2000/svg" xmlns:xlink="http://www.w3.org/1999/xlink">
    <!-- Generator: Sketch 51.3 (57544) - http://www.bohemiancoding.com/sketch -->
    <title>Crash3D logo</title>
    <desc>Created with Sketch.</desc>
    <defs></defs>
    <g id="⚙Symbols" stroke="none" stroke-width="1" fill="none" fill-rule="evenodd">
        <g id="Crash3D-logo">
            <g>
                <path d="M51.0458491,8.78830189 C51.1379245,9.08679245 50.9703774,9.40339623 50.6718868,9.49584906 L48.3624528,10.2286792 C48.3039623,10.2479245 48.244717,10.2569811 48.1862264,10.2569811 C47.9484906,10.2569811 47.7266038,10.105283 47.6484906,9.86679245 L46.9443396,7.71509434 C46.8979245,7.57207547 46.91,7.41660377 46.9779245,7.28301887 C47.0458491,7.14867925 47.1643396,7.04754717 47.3069811,7.00113208 L49.6722642,6.24943396 C49.8160377,6.20603774 49.9711321,6.22 50.1035849,6.29018868 C50.2364151,6.36037736 50.3360377,6.48075472 50.3798113,6.62415094 L51.0458491,8.78830189 Z M50.9216981,31.0984906 L50.2213208,33.2516981 C50.1749057,33.3950943 50.0730189,33.5139623 49.9383019,33.5818868 C49.8586792,33.6226415 49.7711321,33.6426415 49.6832075,33.6426415 C49.6228302,33.6426415 49.5628302,33.6332075 49.504717,33.6135849 L47.1620755,32.8343396 C47.0190566,32.7867925 46.900566,32.6837736 46.8333962,32.5490566 C46.7666038,32.4135849 46.7560377,32.2573585 46.804717,32.114717 L47.5349057,29.9716981 C47.6349057,29.6769811 47.9533962,29.5184906 48.2492453,29.6169811 L50.5620755,30.3864151 C50.8571698,30.4845283 51.0179245,30.8026415 50.9216981,31.0984906 Z M60.6243396,12.774717 C60.4420755,12.5226415 60.4971698,12.1709434 60.7481132,11.9867925 L62.5737736,10.6475472 C62.695283,10.5581132 62.8477358,10.5203774 62.9964151,10.5449057 C63.1454717,10.5683019 63.2786792,10.6501887 63.3673585,10.7724528 L64.8130189,12.7709434 C64.9016981,12.8928302 64.9375472,13.0449057 64.9133962,13.1939623 C64.8888679,13.3426415 64.8062264,13.4758491 64.6835849,13.5630189 L62.840566,14.8784906 C62.7409434,14.949434 62.6258491,14.9837736 62.5122642,14.9837736 C62.3367925,14.9837736 62.1639623,14.9022642 62.0530189,14.749434 L60.6243396,12.774717 Z M58.6579245,7.77358491 L57.9303774,9.91735849 C57.8503774,10.1528302 57.63,10.3015094 57.3941509,10.3015094 C57.3341509,10.3015094 57.2730189,10.2916981 57.2126415,10.2716981 L55.9809434,9.85471698 L54.9118868,9.51358491 C54.6141509,9.41849057 54.4496226,9.1 54.5443396,8.80226415 L55.2326415,6.64528302 C55.3277358,6.34754717 55.6458491,6.18226415 55.9439623,6.27849057 L57.2318868,6.6909434 L58.3039623,7.0554717 C58.6001887,7.15584906 58.7583019,7.47735849 58.6579245,7.77358491 Z M64.8349057,26.8366038 C64.8579245,26.9856604 64.820566,27.1377358 64.7315094,27.2588679 L63.27,29.2437736 C63.180566,29.3649057 63.0466038,29.4456604 62.8975472,29.4679245 C62.8696226,29.4720755 62.8416981,29.4739623 62.8141509,29.4739623 C62.6930189,29.4739623 62.5741509,29.4354717 62.4760377,29.3622642 L60.6598113,28.0101887 C60.41,27.8237736 60.3575472,27.4713208 60.5420755,27.2203774 L61.9892453,25.254717 C62.1745283,25.0041509 62.5273585,24.9501887 62.7786792,25.1328302 L64.6088679,26.4656604 C64.7303774,26.5543396 64.8118868,26.6879245 64.8349057,26.8366038 Z M44.9296226,12.6962264 L43.4862264,14.6611321 C43.375283,14.8124528 43.2035849,14.8924528 43.0296226,14.8924528 C42.9145283,14.8924528 42.7983019,14.8573585 42.6979245,14.7849057 L40.864717,13.4562264 C40.7424528,13.3679245 40.660566,13.2339623 40.6375472,13.085283 C40.6141509,12.9362264 40.6515094,12.7841509 40.740566,12.6630189 L42.2013208,10.6743396 C42.2903774,10.5528302 42.4243396,10.4720755 42.5733962,10.449434 C42.7232075,10.4279245 42.8745283,10.4649057 42.9956604,10.5554717 L44.8115094,11.9075472 C45.0609434,12.0932075 45.1137736,12.4456604 44.9296226,12.6962264 Z M58.5186792,32.190566 C58.5650943,32.3335849 58.5533962,32.4890566 58.4850943,32.6230189 C58.4171698,32.7569811 58.2986792,32.8581132 58.1556604,32.9049057 L55.7907547,33.6554717 C55.7360377,33.6720755 55.6801887,33.6807547 55.6239623,33.6807547 C55.5326415,33.6807547 55.4416981,33.6584906 55.359434,33.6150943 C55.2266038,33.5445283 55.1269811,33.4245283 55.0832075,33.2811321 L54.4171698,31.1169811 C54.3250943,30.8181132 54.4926415,30.5015094 54.7911321,30.409434 L57.100566,29.6766038 C57.3967925,29.5796226 57.7171698,29.7415094 57.8145283,30.0384906 L58.5186792,32.190566 Z M66.7364151,18.7720755 L66.7183019,21.2898113 C66.7171698,21.4407547 66.6556604,21.5849057 66.5481132,21.6901887 C66.4420755,21.7939623 66.2998113,21.8516981 66.1522642,21.8516981 L66.1435849,21.8516981 L63.8798113,21.8181132 C63.5688679,21.8135849 63.3198113,21.5592453 63.3220755,21.2483019 L63.3401887,18.7641509 C63.3424528,18.4528302 63.595283,18.2018868 63.9062264,18.2018868 L66.1703774,18.2018868 C66.3213208,18.2018868 66.4658491,18.2618868 66.5722642,18.369434 C66.6783019,18.4762264 66.7375472,18.6215094 66.7364151,18.7720755 Z M44.8450943,27.0996226 C45.03,27.3520755 44.9756604,27.7064151 44.7235849,27.8913208 L42.8979245,29.230566 C42.7971698,29.3041509 42.6798113,29.34 42.5632075,29.34 C42.3892453,29.34 42.2175472,29.26 42.1066038,29.1090566 L41.4371698,28.1962264 C41.3937736,28.1373585 41.3507547,28.0773585 41.3081132,28.0169811 L40.6560377,27.0920755 C40.5696226,26.969434 40.535283,26.8173585 40.5609434,26.669434 C40.5866038,26.5215094 40.67,26.3898113 40.7926415,26.3033962 L42.6432075,24.9988679 C42.8990566,24.8184906 43.2515094,24.88 43.4315094,25.1343396 L44.1813208,26.1950943 L44.8450943,27.0996226 Z M41.5858491,21.6467925 L39.3216981,21.6716981 L39.3156604,21.6716981 C39.1662264,21.6716981 39.0224528,21.6120755 38.9160377,21.5064151 C38.8084906,21.3996226 38.7488679,21.2535849 38.7496226,21.1018868 L38.7662264,18.6343396 C38.7673585,18.4833962 38.8284906,18.3392453 38.9360377,18.2335849 C39.0435849,18.1279245 39.1983019,18.0762264 39.3398113,18.0720755 L41.6035849,18.1026415 C41.9149057,18.1067925 42.1639623,18.3611321 42.1620755,18.6720755 L42.1458491,21.0845283 C42.1439623,21.3932075 41.8949057,21.6433962 41.5858491,21.6467925 Z M6.19037736,18.5475472 L5.09188679,21.5660377 C5.02245283,21.7577358 4.84018868,21.8856604 4.63603774,21.8856604 L1.61716981,21.8856604 C1.4590566,21.8856604 1.31075472,21.8083019 1.21981132,21.6784906 C1.12886792,21.5486792 1.10735849,21.3830189 1.16132075,21.2343396 L2.25981132,18.2158491 C2.32962264,18.0245283 2.51188679,17.8966038 2.71566038,17.8966038 L5.7345283,17.8966038 C5.89301887,17.8966038 6.04132075,17.9739623 6.13226415,18.1037736 C6.22283019,18.2332075 6.24471698,18.3992453 6.19037736,18.5475472 Z M15.5662264,28.1649057 C15.6567925,28.2943396 15.6786792,28.4603774 15.6243396,28.6086792 L14.5258491,31.6271698 C14.4564151,31.8188679 14.2741509,31.9467925 14.07,31.9467925 L11.0511321,31.9467925 C10.8930189,31.9467925 10.744717,31.869434 10.6537736,31.7396226 C10.5628302,31.6101887 10.5413208,31.4441509 10.595283,31.2958491 L11.6937736,28.2773585 C11.7635849,28.0856604 11.9458491,27.9577358 12.1496226,27.9577358 L15.1684906,27.9577358 C15.3269811,27.9577358 15.475283,28.0350943 15.5662264,28.1649057 Z M5.00018868,28.1649057 C5.09075472,28.2943396 5.11264151,28.4603774 5.05830189,28.6086792 L3.95981132,31.6271698 C3.89037736,31.8188679 3.70811321,31.9467925 3.50396226,31.9467925 L0.48509434,31.9467925 C0.326981132,31.9467925 0.178679245,31.869434 0.0877358491,31.7396226 C-0.00320754717,31.6101887 -0.0247169811,31.4441509 0.029245283,31.2958491 L1.12773585,28.2773585 C1.19754717,28.0856604 1.37981132,27.9577358 1.58358491,27.9577358 L4.60245283,27.9577358 C4.7609434,27.9577358 4.90924528,28.0350943 5.00018868,28.1649057 Z M10.2832075,28.1649057 C10.3737736,28.2943396 10.3956604,28.4603774 10.3413208,28.6086792 L9.24283019,31.6271698 C9.17339623,31.8188679 8.99113208,31.9467925 8.78698113,31.9467925 L5.76811321,31.9467925 C5.61,31.9467925 5.46169811,31.869434 5.37075472,31.7396226 C5.27981132,31.6101887 5.25830189,31.4441509 5.31226415,31.2958491 L6.41075472,28.2773585 C6.48056604,28.0856604 6.66283019,27.9577358 6.86660377,27.9577358 L9.8854717,27.9577358 C10.0439623,27.9577358 10.1922642,28.0350943 10.2832075,28.1649057 Z M13.295283,12.4445283 C13.2043396,12.3150943 13.1828302,12.1490566 13.2367925,12.0007547 L14.335283,8.98226415 C14.4050943,8.79056604 14.5873585,8.66264151 14.7911321,8.66264151 L17.81,8.66264151 C17.9684906,8.66264151 18.1167925,8.74 18.2077358,8.86981132 C18.2983019,8.99962264 18.3201887,9.16528302 18.2658491,9.31396226 L17.1673585,12.3324528 C17.0979245,12.5237736 16.9156604,12.6516981 16.7115094,12.6516981 L13.6926415,12.6516981 C13.5345283,12.6516981 13.3862264,12.5743396 13.295283,12.4445283 Z M8.01226415,12.4445283 C7.92132075,12.3150943 7.89981132,12.1490566 7.95377358,12.0007547 L9.05226415,8.98226415 C9.12207547,8.79056604 9.30433962,8.66264151 9.50811321,8.66264151 L12.5269811,8.66264151 C12.6854717,8.66264151 12.8337736,8.74 12.924717,8.86981132 C13.015283,8.99962264 13.0371698,9.16528302 12.9828302,9.31396226 L11.8843396,12.3324528 C11.8149057,12.5237736 11.6326415,12.6516981 11.4284906,12.6516981 L8.40962264,12.6516981 C8.25150943,12.6516981 8.10320755,12.5743396 8.01226415,12.4445283 Z M52.7432075,36.8860377 C43.4058491,36.8860377 35.8096226,29.289434 35.8096226,19.9524528 C35.8096226,17.3128302 36.4171698,14.8128302 37.499434,12.5837736 C37.5967925,12.5279245 37.6764151,12.4430189 37.7167925,12.3324528 L37.9167925,11.7822642 C40.804717,6.56264151 46.3669811,3.01886792 52.7432075,3.01886792 C62.0801887,3.01886792 69.6767925,10.6154717 69.6767925,19.9524528 C69.6767925,29.289434 62.0801887,36.8860377 52.7432075,36.8860377 Z M52.7432075,0 C45.9292453,0 39.9050943,3.43509434 36.3039623,8.66264151 L20.2798113,8.66264151 C20.0756604,8.66264151 19.8933962,8.79056604 19.8239623,8.98226415 L18.7254717,12.0007547 C18.6711321,12.1490566 18.6930189,12.3150943 18.7835849,12.4445283 C18.8745283,12.5743396 19.0228302,12.6516981 19.1813208,12.6516981 L34.1798113,12.6516981 C33.5273585,14.3049057 33.084717,16.0630189 32.8960377,17.8966038 L8.20433962,17.8966038 C8.00018868,17.8966038 7.81792453,18.0245283 7.74849057,18.2158491 L6.65,21.2343396 C6.59566038,21.3830189 6.61754717,21.5486792 6.70811321,21.6784906 C6.7990566,21.8083019 6.94735849,21.8856604 7.10584906,21.8856604 L32.8858491,21.8856604 C33.0926415,24.0264151 33.6409434,26.0675472 34.4726415,27.9577358 L17.6383019,27.9577358 C17.4341509,27.9577358 17.2518868,28.0856604 17.1824528,28.2773585 L16.0839623,31.2958491 C16.0296226,31.4441509 16.0515094,31.6101887 16.1420755,31.7396226 C16.2330189,31.869434 16.3813208,31.9467925 16.5398113,31.9467925 L36.81,31.9467925 C40.4549057,36.7766038 46.2398113,39.9049057 52.7432075,39.9049057 C63.744717,39.9049057 72.6956604,30.9543396 72.6956604,19.9524528 C72.6956604,8.95056604 63.744717,0 52.7432075,0 Z" id="Fill-1" fill="#4C88FF"></path>
                <path d="M91.4436604,8.59264151 C89.4783774,8.59264151 87.778,9.28849057 86.3896981,10.660566 C85.0002642,12.0345283 84.2961132,13.7133962 84.2961132,15.6511321 L84.2961132,24.9088679 C84.2961132,26.8462264 85.0002642,28.5277358 86.3893208,29.9062264 C87.767434,31.2733962 89.4678113,31.9673585 91.4436604,31.9673585 C93.4089434,31.9673585 95.1093208,31.2718868 96.4976226,29.899434 C97.8870566,28.5254717 98.5912075,26.8466038 98.5912075,24.9088679 L98.5912075,23.6715094 C98.5912075,23.5269811 98.5176226,23.3922642 98.3957358,23.3145283 C98.2734717,23.2371698 98.1213962,23.2254717 97.9893208,23.2866038 L95.6040377,24.39 C95.4538491,24.459434 95.358,24.6096226 95.358,24.7749057 L95.358,24.9537736 C95.358,26.0375472 94.9802642,26.9330189 94.2017736,27.6933962 C93.4217736,28.4639623 92.5198868,28.8383019 91.4436604,28.8383019 C90.347434,28.8383019 89.4410189,28.4643396 88.6723396,27.695283 C87.903283,26.9262264 87.5293208,26.0292453 87.5293208,24.9537736 L87.5293208,15.6062264 C87.5293208,14.5213208 87.9029057,13.6220755 88.6715849,12.8583019 C89.4406415,12.0933962 90.3470566,11.7216981 91.4436604,11.7216981 C92.5198868,11.7216981 93.4217736,12.0960377 94.2017736,12.8662264 C94.9798868,13.635283 95.358,14.5315094 95.358,15.6062264 L95.358,16.8733962 C95.358,17.0175472 95.4312075,17.1522642 95.552717,17.23 C95.6742264,17.3084906 95.827434,17.3183019 95.958,17.259434 L98.343283,16.1711321 C98.4946038,16.1016981 98.5912075,15.9511321 98.5912075,15.7854717 L98.5912075,15.6511321 C98.5912075,13.7341509 97.887434,12.0583019 96.5002642,10.6711321 C95.1315849,9.29226415 93.4304528,8.59264151 91.4436604,8.59264151" id="Fill-3" fill="#FFFFFF"></path>
                <path d="M107.788528,14.4217736 C106.128906,14.4217736 104.693811,15.0149811 103.523245,16.1859245 C102.352302,17.3564906 101.758717,18.7915849 101.758717,20.4515849 L101.758717,31.543283 C101.758717,31.6866792 101.83117,31.8198868 101.95117,31.8983774 C102.020981,31.9444151 102.101736,31.967434 102.183245,31.967434 C102.240604,31.967434 102.298717,31.9557358 102.352679,31.9315849 L104.73834,30.8881887 C104.892679,30.8206415 104.992302,30.6681887 104.992302,30.4995094 L104.992302,20.4515849 C104.992302,19.6881887 105.263245,19.0504528 105.819849,18.5025283 C106.379094,17.9523396 107.037208,17.6847925 107.833434,17.6847925 C108.589283,17.6847925 109.228151,17.9523396 109.787019,18.5025283 C110.326264,19.0330943 110.597208,19.6881887 110.614566,20.4964906 L110.614566,21.5546038 C110.614566,21.698 110.686642,21.8312075 110.806642,21.9096981 C110.926264,21.9881887 111.077585,22.0010189 111.208528,21.943283 L113.593811,20.8995094 C113.748151,20.8319623 113.848151,20.6795094 113.848151,20.5112075 L113.848151,20.4515849 C113.848151,18.8334717 113.250792,17.3998868 112.071925,16.1889434 C110.920604,15.0161132 109.479472,14.4217736 107.788528,14.4217736" id="Fill-5" fill="#FFFFFF"></path>
                <path d="M122.307623,14.4217736 C120.643094,14.4217736 119.245358,15.008566 118.151774,16.1663019 C116.888755,17.5130943 116.248,18.9553585 116.248,20.4515849 L116.248,21.763283 C116.248,21.9070566 116.32083,22.0406415 116.441208,22.1183774 C116.56083,22.1972453 116.71366,22.2089434 116.843849,22.1508302 L119.229509,21.092717 C119.382717,21.0247925 119.481585,20.872717 119.481585,20.7047925 L119.481585,20.5051698 C119.498943,19.6881887 119.769887,19.0330943 120.309132,18.5025283 C120.868377,17.9523396 121.492151,17.6847925 122.218189,17.6847925 C123.06083,17.6847925 123.737057,17.958 124.284981,18.5191321 C124.773283,19.0187547 125.039321,19.6104528 125.093283,20.3210189 L119.306491,22.7104528 C117.237434,23.5504528 116.188755,25.0081887 116.188755,27.0413962 L116.188755,27.1602642 C116.188755,28.3036604 116.620453,29.3259245 117.483472,30.2112075 C118.712528,31.3764906 120.144981,31.967434 121.741208,31.967434 C122.750264,31.967434 123.684604,31.7451698 124.517434,31.3070566 C124.709509,31.2063019 124.794415,30.9772453 124.714415,30.7757358 L123.820075,28.5244151 C123.77366,28.4078113 123.678189,28.318 123.560075,28.2787547 C123.440075,28.238 123.311019,28.2538491 123.204226,28.3191321 C122.781208,28.5783774 122.302717,28.7040377 121.741208,28.7040377 C120.831396,28.7040377 120.196302,28.4455472 119.801208,27.9157358 C119.599321,27.6413962 119.496679,27.3825283 119.496679,27.1466792 C119.496679,26.498 119.921208,25.9795094 120.771396,25.572717 L125.103849,23.8093208 L125.103849,31.543283 C125.103849,31.6866792 125.175925,31.8198868 125.295925,31.8983774 C125.365736,31.9444151 125.446491,31.967434 125.528,31.967434 C125.585358,31.967434 125.643472,31.9557358 125.697434,31.9315849 L128.083094,30.8881887 C128.237434,30.8206415 128.337434,30.6681887 128.337434,30.4995094 L128.337434,20.4515849 C128.337434,18.7915849 127.743849,17.3564906 126.572906,16.1859245 C125.40234,15.0149811 123.967245,14.4217736 122.307623,14.4217736" id="Fill-7" fill="#FFFFFF"></path>
                <path d="M137.449887,20.7009057 C136.924981,20.6424151 136.528755,20.4831698 136.267623,20.2220377 C135.992528,19.9548679 135.859321,19.6495849 135.859321,19.2888302 L135.859321,19.2141132 C135.859321,18.8510943 136.003849,18.5295849 136.301585,18.2318491 C136.629132,17.9043019 136.999321,17.7446792 137.432906,17.7446792 C137.888,17.7446792 138.248377,17.8986415 138.525358,18.2058113 C138.809132,18.5405283 139.024981,19.0092075 139.168,19.5971321 C139.197434,19.7190189 139.279321,19.8220377 139.392151,19.8775094 C139.504226,19.9333585 139.636679,19.9356226 139.751019,19.885434 L141.912906,18.9314717 C142.107245,18.8450566 142.208377,18.6280755 142.148755,18.4239245 C141.844226,17.3858113 141.409509,16.5352453 140.852906,15.8933585 C139.997057,14.9167547 138.851774,14.4216604 137.448,14.4216604 C136.12083,14.4216604 134.979321,14.9126038 134.058189,15.8767547 C133.162717,16.7937358 132.680453,17.8605283 132.625736,19.0650566 C132.625736,19.1699623 132.631396,19.2752453 132.643094,19.3805283 C132.79366,20.7197736 133.263472,21.7703396 134.04083,22.5039245 C134.838566,23.2578868 135.917811,23.6729811 137.248,23.7375094 C138.149887,23.7824151 138.837811,24.0578868 139.349509,24.5775094 C139.851396,25.0963774 140.09517,25.6197736 140.09517,26.1763774 C140.09517,26.8258113 139.849887,27.4043019 139.349509,27.9390189 C138.851774,28.4541132 138.234792,28.7039245 137.462717,28.7039245 C136.666868,28.7039245 136.008377,28.4363774 135.449509,27.886566 C134.911396,27.3575094 134.645358,26.7039245 134.636679,25.8876981 L134.621962,24.7397736 C134.619698,24.5975094 134.546868,24.4658113 134.427623,24.3884528 C134.308377,24.3118491 134.158189,24.2990189 134.028,24.3567547 L131.642717,25.4001509 C131.474415,25.4737358 131.372528,25.6476981 131.390642,25.8310943 L131.403849,25.9578868 C131.477811,27.5363774 132.118943,28.9722264 133.306868,30.2224151 C134.389132,31.3805283 135.787623,31.9673208 137.462717,31.9673208 C139.208,31.9673208 140.647245,31.3695849 141.741208,30.1895849 C142.772906,29.0620377 143.307245,27.7646792 143.328755,26.325434 L143.328755,26.2805283 C143.328755,24.7658113 142.772906,23.4643019 141.674038,22.4076981 C140.685736,21.4839245 139.265358,20.9095849 137.449887,20.7009057" id="Fill-9" fill="#FFFFFF"></path>
                <path d="M152.427962,14.4217736 C151.410226,14.4217736 150.473245,14.6451698 149.631736,15.0870566 L149.631736,9.01686792 C149.631736,8.8734717 149.560038,8.73988679 149.440038,8.66177358 C149.320792,8.58328302 149.169472,8.57083019 149.038528,8.62818868 L146.652491,9.67196226 C146.498528,9.73950943 146.398151,9.89158491 146.398151,10.0602642 L146.398151,31.543283 C146.398151,31.6866792 146.470604,31.8198868 146.590604,31.8983774 C146.710226,31.9768679 146.861925,31.9896981 146.992491,31.9315849 L149.377396,30.8881887 C149.532113,30.8206415 149.631736,30.6681887 149.631736,30.4995094 L149.631736,20.4115849 C149.640415,19.6651698 149.907208,19.0395094 150.44683,18.5002642 C150.995132,17.9515849 151.658528,17.6847925 152.472868,17.6847925 C153.22834,17.6847925 153.867208,17.9523396 154.42683,18.5025283 C154.965698,19.0330943 155.236642,19.6881887 155.253623,20.4964906 L155.253623,31.543283 C155.253623,31.6866792 155.326075,31.8198868 155.446075,31.8983774 C155.516264,31.9444151 155.597019,31.967434 155.678151,31.967434 C155.735887,31.967434 155.794,31.9557358 155.847962,31.9315849 L158.233623,30.8881887 C158.387585,30.8206415 158.487962,30.6681887 158.487962,30.4995094 L158.487962,20.4515849 C158.487962,18.7908302 157.888717,17.3553585 156.707208,16.1847925 C155.527208,15.0146038 154.08683,14.4217736 152.427962,14.4217736" id="Fill-11" fill="#FFFFFF"></path>
                <path d="M170.131736,17.9669057 L175.01966,9.52728302 C175.095509,9.39596226 175.095509,9.23445283 175.01966,9.10350943 C174.943811,8.97143396 174.804566,8.89067925 174.652491,8.89067925 L163.278906,8.89067925 C163.110981,8.89067925 162.958151,8.99067925 162.890604,9.14501887 L161.84683,11.5303019 C161.789472,11.6612453 161.802679,11.8121887 161.880792,11.9321887 C161.958906,12.0521887 162.092113,12.1246415 162.235132,12.1246415 L169.502302,12.1246415 L165.06683,19.4276604 C164.960038,19.6038868 164.994755,19.8299245 165.148717,19.9661509 L166.400792,21.0695472 C166.517396,21.172566 166.681547,21.2027547 166.827585,21.1495472 C167.470981,20.9121887 167.79966,20.8623774 167.962679,20.8623774 C168.124189,20.8623774 168.283434,20.871434 168.433623,20.8891698 C169.507585,21.016717 170.454,21.4650189 171.246075,22.2212453 C171.980038,22.9197358 172.337019,23.8084151 172.337019,24.9401132 C172.337019,26.0163396 171.962679,26.9186038 171.193623,27.6952075 C170.424943,28.4642642 169.518528,28.8386038 168.422679,28.8386038 C167.345698,28.8386038 166.443811,28.4638868 165.663057,27.6918113 C164.886453,26.9329434 164.50834,26.0378491 164.50834,24.9540755 L164.50834,23.671434 C164.50834,23.5284151 164.435887,23.3952075 164.315887,23.3170943 C164.197019,23.2382264 164.045321,23.2257736 163.914,23.2831321 L161.529094,24.3269057 C161.374377,24.3944528 161.274755,24.5469057 161.274755,24.7152075 L161.274755,24.9087925 C161.274755,26.8148302 161.978151,28.4948302 163.365698,29.9038868 C164.724189,31.2733208 166.426075,31.9676604 168.422679,31.9676604 C170.397774,31.9676604 172.098151,31.2789811 173.476264,29.9212453 C174.845698,28.5718113 175.540792,26.8816226 175.540792,24.8974717 L175.540792,24.8533208 C175.540792,22.9095472 174.855509,21.2442642 173.503811,19.9050189 C172.516642,18.9235094 171.384566,18.2733208 170.131736,17.9669057" id="Fill-13" fill="#FFFFFF"></path>
                <path d="M184.766906,12.0050566 C185.843132,12.0050566 186.745019,12.3793962 187.525019,13.1495849 C188.302377,13.9186415 188.680491,14.8148679 188.680491,15.8895849 L188.680491,24.6556226 C188.680491,25.7393962 188.303132,26.6348679 187.526151,27.3937358 C186.737094,28.1646792 185.834075,28.5401509 184.751434,28.5401509 L180.822377,28.5401509 L180.822377,12.0182642 L184.753698,12.0050566 L184.751434,11.5809057 L184.766906,12.0050566 Z M189.820868,10.9439245 C188.432189,9.57184906 186.731811,8.876 184.751434,8.876 L180.398604,8.876 C180.340491,8.876 180.282,8.88769811 180.228415,8.9114717 L177.843132,9.95486792 C177.688415,10.0224151 177.58917,10.1748679 177.58917,10.3435472 L177.58917,31.2450566 C177.58917,31.4793962 177.778226,31.6692075 178.012943,31.6692075 L184.766906,31.6692075 C186.731811,31.6692075 188.432189,30.9737358 189.820868,29.6009057 C191.209925,28.2273208 191.914453,26.5484528 191.914453,24.610717 L191.914453,15.9341132 C191.914453,13.9963774 191.209925,12.3175094 189.820868,10.9439245 Z" id="Fill-15" fill="#FFFFFF"></path>
            </g>
        </g>
    </g>
</svg>