<?xml version="1.0" encoding="UTF-8"?>
<svg width="24px" height="24px" viewBox="0 0 24 24" version="1.1" xmlns="http://www.w3.org/2000/svg" xmlns:xlink="http://www.w3.org/1999/xlink">
    <!-- Generator: Sketch 51.3 (57544) - http://www.bohemiancoding.com/sketch -->
    <title>nav-item/icon/account</title>
    <desc>Created with Sketch.</desc>
    <defs></defs>
    <g id="nav-item/icon/account" stroke="none" stroke-width="1" fill="none" fill-rule="evenodd">
        <g id="iconmonstr-user-circle-thin" fill="#4D88FF">
            <path d="M12,0 C18.623,0 24,5.377 24,12 C24,18.623 18.623,24 12,24 C5.377,24 0,18.623 0,12 C0,5.377 5.377,0 12,0 Z M20.127,19.41 C19.845,19.009 19.355,18.756 18.503,18.56 C14.655,17.654 14.406,17.059 14.151,16.501 C13.892,15.936 13.961,15.271 14.356,14.524 C16.082,11.267 16.446,8.5 15.383,6.734 C14.709,5.615 13.508,5 12,5 C10.479,5 9.268,5.626 8.591,6.763 C7.525,8.552 7.898,11.307 9.64,14.52 C10.042,15.262 10.116,15.926 9.86,16.494 C9.595,17.08 9.249,17.684 5.495,18.56 C4.643,18.756 4.153,19.009 3.872,19.408 C5.884,21.615 8.782,23 12,23 C15.218,23 18.115,21.615 20.127,19.41 Z M20.777,18.628 C22.172,16.784 23,14.488 23,12 C23,5.929 18.071,1 12,1 C5.929,1 1,5.929 1,12 C1,14.487 1.827,16.783 3.222,18.626 C3.631,18.174 4.271,17.816 5.271,17.585 C7.296,17.123 8.647,16.749 8.949,16.083 C9.071,15.811 9.01,15.455 8.761,14.996 C6.844,11.461 6.479,8.355 7.731,6.251 C8.584,4.82 10.139,4 12,4 C13.845,4 15.391,4.808 16.24,6.218 C17.491,8.297 17.136,11.413 15.24,14.992 C14.995,15.455 14.936,15.813 15.061,16.086 C15.366,16.754 16.705,17.124 18.728,17.585 C19.728,17.815 20.368,18.175 20.777,18.628 Z" id="Shape"></path>
        </g>
    </g>
</svg>