<?xml version="1.0" encoding="UTF-8"?>
<svg width="24px" height="24px" viewBox="0 0 24 24" version="1.1" xmlns="http://www.w3.org/2000/svg" xmlns:xlink="http://www.w3.org/1999/xlink">
    <!-- Generator: Sketch 51.3 (57544) - http://www.bohemiancoding.com/sketch -->
    <title>nav-item/icon/support</title>
    <desc>Created with Sketch.</desc>
    <defs></defs>
    <g id="nav-item/icon/support" stroke="none" stroke-width="1" fill="none" fill-rule="evenodd">
        <path d="M7.34861115,20.3928248 C7.22565939,20.4684754 7.07319261,20.5621571 7.01013484,20.6003664 C6.7893986,20.7341193 6.60375132,20.8415337 6.4105789,20.9456423 C5.54178381,21.413872 4.49388109,21.816221 2.70574324,22.3392363 L1.73063182,22.6244482 L2.0994972,21.6778086 C2.63796212,20.2959164 2.84372792,18.9076884 2.74073959,17.3648992 C2.46874192,17.0392728 2.33488801,16.8733995 2.16038448,16.6419837 C1.08000714,15.2092538 0.500000184,13.7390285 0.500000197,11.8082536 C0.498831379,6.64792413 5.6788194,2.5 11.9994501,2.5 C18.3198814,2.5 23.5,6.64774235 23.5,11.8081403 C23.5,17.1388304 18.1280152,21.0656781 12.098455,21.0656781 C10.7241742,21.0656781 9.52304535,20.9022266 8.17698595,20.5928875 C8.00560756,20.5535029 7.83566527,20.5128007 7.63017519,20.4623336 C7.59295258,20.453192 7.46598943,20.421804 7.34861113,20.3928248 Z" id="Shape" stroke="#FFFFFF" fill-rule="nonzero"></path>
        <g id="Group" transform="translate(9.000000, 7.000000)" fill="#FFFFFF" fill-rule="nonzero">
            <path d="M4.024,8.975 C4.024,9.541 3.566,10 3,10 C2.435,10 1.976,9.541 1.976,8.975 C1.976,8.41 2.435,7.951 3,7.951 C3.566,7.951 4.024,8.41 4.024,8.975 Z" id="Path"></path>
            <path d="M5.165,0.783 C4.667,0.278 3.924,4.4408921e-16 3.075,4.4408921e-16 C1.289,4.4408921e-16 0.134,1.271 0.134,3.237 L1.781,3.237 C1.781,2.02 2.461,1.588 3.042,1.588 C3.561,1.588 4.112,1.933 4.159,2.592 C4.211,3.286 3.84,3.638 3.371,4.085 C2.214,5.185 2.192,5.718 2.198,6.927 L3.841,6.927 C3.831,6.383 3.866,5.941 4.607,5.142 C5.162,4.544 5.852,3.8 5.866,2.665 C5.874,1.907 5.633,1.256 5.165,0.783 Z" id="Path"></path>
        </g>
    </g>
</svg>